<svg width="808" height="56" viewBox="0 0 808 56" fill="none" xmlns="http://www.w3.org/2000/svg">
<g clip-path="url(#clip0_2_96)">
<path d="M258.978 1.9225H211.631C210.687 1.9225 209.923 2.68744 209.923 3.63104V50.9775C209.923 51.9211 210.687 52.6861 211.631 52.6861H258.978C259.921 52.6861 260.686 51.9211 260.686 50.9775V3.63104C260.686 2.68744 259.921 1.9225 258.978 1.9225Z" fill="#EEDDBB" stroke="#111111" stroke-width="0.268256" stroke-linecap="round" stroke-linejoin="round"/>
<path d="M241.979 33.0977C241.979 35.7465 241.021 37.8248 239.106 39.3326C237.19 40.8404 234.548 41.5943 231.18 41.5943C227.811 41.5943 225.053 41.0713 222.907 40.0254V35.4205C224.266 36.059 225.705 36.5616 227.227 36.9283C228.762 37.2951 230.188 37.4785 231.506 37.4785C233.435 37.4785 234.854 37.1117 235.764 36.3782C236.688 35.6447 237.15 34.6599 237.15 33.4238C237.15 32.3099 236.729 31.3658 235.886 30.5916C235.044 29.8173 233.305 28.9004 230.67 27.8409C227.954 26.7406 226.038 25.4842 224.924 24.0715C223.811 22.6588 223.254 20.9608 223.254 18.9776C223.254 16.4918 224.137 14.5358 225.902 13.1095C227.668 11.6832 230.039 10.9701 233.013 10.9701C235.866 10.9701 238.705 11.5949 241.53 12.8446L239.982 16.8178C237.333 15.704 234.969 15.147 232.891 15.147C231.315 15.147 230.12 15.4934 229.305 16.1862C228.49 16.8654 228.083 17.7687 228.083 18.8961C228.083 19.6704 228.246 20.336 228.572 20.8929C228.898 21.4362 229.434 21.9524 230.181 22.4414C230.928 22.9304 232.273 23.5757 234.216 24.3771C236.403 25.2872 238.005 26.1362 239.024 26.924C240.043 27.7119 240.79 28.6016 241.265 29.5932C241.741 30.5848 241.979 31.753 241.979 33.0977Z" fill="black"/>
<path d="M248.583 47.6331H247.013V42.5987C247.013 41.9978 247.03 41.5214 247.066 41.1694C246.964 41.2547 246.837 41.3489 246.685 41.452C246.538 41.5552 246.039 41.8823 245.188 42.4333L244.4 41.6387L247.273 39.8361H248.583V47.6331Z" fill="black"/>
<path d="M313.507 1.9225H266.192C265.24 1.9225 264.468 2.69459 264.468 3.64701V50.9616C264.468 51.914 265.24 52.6861 266.192 52.6861H313.507C314.459 52.6861 315.232 51.914 315.232 50.9616V3.64701C315.232 2.69459 314.459 1.9225 313.507 1.9225Z" fill="#EEDDBB" stroke="#111111" stroke-width="0.268256" stroke-linecap="round" stroke-linejoin="round"/>
<path d="M290.873 15.147C288.075 15.147 285.874 16.1386 284.272 18.1219C282.669 20.1051 281.867 22.8421 281.867 26.3331C281.867 29.9871 282.635 32.7514 284.17 34.6259C285.718 36.5004 287.953 37.4377 290.873 37.4377C292.136 37.4377 293.359 37.3155 294.541 37.0709C295.723 36.8129 296.952 36.4869 298.229 36.0929V40.2699C295.892 41.1528 293.244 41.5943 290.282 41.5943C285.922 41.5943 282.574 40.2767 280.237 37.6415C277.901 34.9927 276.733 31.2096 276.733 26.2924C276.733 23.1953 277.296 20.4854 278.424 18.1626C279.565 15.8398 281.208 14.0604 283.355 12.8243C285.501 11.5882 288.021 10.9701 290.914 10.9701C293.957 10.9701 296.768 11.6085 299.349 12.8854L297.597 16.9401C296.592 16.4647 295.526 16.0504 294.398 15.6972C293.284 15.3304 292.109 15.147 290.873 15.147Z" fill="black"/>
<path d="M308.349 41.9857C308.349 42.4799 308.169 42.8923 307.808 43.223C307.447 43.5501 306.939 43.7705 306.284 43.8843V43.927C307.069 44.0052 307.657 44.2007 308.049 44.5136C308.441 44.8229 308.637 45.2354 308.637 45.7509C308.637 46.5011 308.305 47.0806 307.641 47.4895C306.977 47.8948 306.033 48.0975 304.807 48.0975C303.725 48.0975 302.811 47.957 302.067 47.6762V46.5615C302.482 46.7251 302.921 46.8513 303.384 46.9402C303.847 47.0291 304.293 47.0735 304.721 47.0735C305.478 47.0735 306.044 46.9615 306.418 46.7375C306.792 46.5135 306.979 46.1669 306.979 45.6976C306.979 45.2816 306.772 44.9758 306.358 44.7803C305.944 44.5847 305.293 44.487 304.406 44.487H303.558V43.4683H304.42C305.979 43.4683 306.759 43.0381 306.759 42.1777C306.759 41.8435 306.623 41.5857 306.351 41.4044C306.079 41.2231 305.678 41.1324 305.148 41.1324C304.778 41.1324 304.422 41.1751 304.079 41.2604C303.736 41.3422 303.33 41.5039 302.863 41.7457L302.094 40.8711C302.99 40.3449 304.03 40.0818 305.215 40.0818C306.2 40.0818 306.968 40.2507 307.521 40.5884C308.073 40.9262 308.349 41.392 308.349 41.9857Z" fill="black"/>
<path d="M368.052 1.9225H320.738C319.786 1.9225 319.013 2.69459 319.013 3.64701V50.9616C319.013 51.914 319.786 52.6861 320.738 52.6861H368.052C369.005 52.6861 369.777 51.914 369.777 50.9616V3.64701C369.777 2.69459 369.005 1.9225 368.052 1.9225Z" fill="#EEDDBB" stroke="#111111" stroke-width="0.268256" stroke-linecap="round" stroke-linejoin="round"/>
<path d="M338.089 25.2532H341.471C343.74 25.2532 345.383 24.8321 346.402 23.99C347.421 23.1478 347.93 21.8981 347.93 20.2409C347.93 18.5565 347.38 17.3476 346.28 16.6141C345.18 15.8806 343.522 15.5138 341.308 15.5138H338.089V25.2532ZM338.089 29.2876V41.1868H333.219V11.398H341.634C345.478 11.398 348.324 12.1179 350.172 13.5578C352.019 14.9976 352.943 17.171 352.943 20.0779C352.943 23.7862 351.014 26.4282 347.156 28.0039L355.571 41.1868H350.029L342.898 29.2876H338.089Z" fill="black"/>
<path d="M362.682 47.9908H361.111V42.9563C361.111 42.3555 361.129 41.879 361.164 41.5271C361.062 41.6124 360.935 41.7066 360.784 41.8097C360.636 41.9128 360.137 42.2399 359.287 42.791L358.498 41.9964L361.372 40.1938H362.682V47.9908Z" fill="black"/>
<path d="M422.613 1.9225H375.269C374.324 1.9225 373.559 2.68794 373.559 3.63216V50.9764C373.559 51.9206 374.324 52.6861 375.269 52.6861H422.613C423.557 52.6861 424.322 51.9206 424.322 50.9764V3.63216C424.322 2.68794 423.557 1.9225 422.613 1.9225Z" fill="#EEDDBB" stroke="#111111" stroke-width="0.268256" stroke-linecap="round" stroke-linejoin="round"/>
<path d="M407.559 41.1868L404.585 32.9144H393.195L390.281 41.1868H385.147L396.292 11.2757H401.589L412.735 41.1868H407.559ZM403.301 28.717L400.51 20.6076C400.306 20.0643 400.021 19.2085 399.654 18.0403C399.301 16.8722 399.056 16.0164 398.92 15.4731C398.554 17.1438 398.017 18.9708 397.311 20.954L394.621 28.717H403.301Z" fill="black"/>
<path d="M420.446 47.9908H418.876V42.9563C418.876 42.3555 418.893 41.8791 418.929 41.5271C418.827 41.6124 418.7 41.7066 418.548 41.8097C418.401 41.9128 417.902 42.2399 417.051 42.791L416.262 41.9964L419.136 40.1938H420.446V47.9908Z" fill="black"/>
<path d="M477.174 1.9225H429.798C428.863 1.9225 428.104 2.68076 428.104 3.61612V50.9924C428.104 51.9278 428.863 52.6861 429.798 52.6861H477.174C478.11 52.6861 478.868 51.9278 478.868 50.9924V3.61612C478.868 2.68076 478.11 1.9225 477.174 1.9225Z" fill="#EEDDBB" stroke="#111111" stroke-width="0.268256" stroke-linecap="round" stroke-linejoin="round"/>
<path d="M443.624 11.398H452.467C456.57 11.398 459.531 11.9957 461.351 13.191C463.185 14.3864 464.102 16.2745 464.102 18.8554C464.102 20.5941 463.653 22.0407 462.757 23.1953C461.86 24.3499 460.57 25.0766 458.886 25.3755V25.5792C460.977 25.9732 462.512 26.7542 463.49 27.9224C464.482 29.077 464.978 30.6459 464.978 32.6291C464.978 35.3051 464.041 37.4037 462.166 38.9251C460.305 40.4329 457.711 41.1868 454.383 41.1868H443.624V11.398ZM448.494 23.7047H453.18C455.218 23.7047 456.705 23.3855 457.643 22.7471C458.58 22.0951 459.049 20.9948 459.049 19.4463C459.049 18.0471 458.539 17.0352 457.52 16.4103C456.515 15.7855 454.912 15.4731 452.712 15.4731H448.494V23.7047ZM448.494 27.6575V37.0913H453.669C455.707 37.0913 457.242 36.7042 458.274 35.9299C459.32 35.1421 459.843 33.906 459.843 32.2216C459.843 30.6731 459.313 29.5253 458.254 28.7782C457.194 28.0311 455.585 27.6575 453.425 27.6575H448.494Z" fill="black"/>
<path d="M472.701 41.9857C472.701 42.4799 472.521 42.8923 472.16 43.223C471.799 43.5501 471.291 43.7705 470.636 43.8843V43.927C471.42 44.0052 472.008 44.2007 472.4 44.5136C472.792 44.8229 472.989 45.2354 472.989 45.7509C472.989 46.5011 472.657 47.0806 471.993 47.4895C471.329 47.8948 470.384 48.0975 469.159 48.0975C468.076 48.0975 467.163 47.957 466.419 47.6762V46.5615C466.833 46.7251 467.272 46.8513 467.736 46.9402C468.199 47.0291 468.644 47.0735 469.072 47.0735C469.83 47.0735 470.395 46.9615 470.77 46.7375C471.144 46.5135 471.331 46.1669 471.331 45.6976C471.331 45.2816 471.124 44.9758 470.71 44.7803C470.295 44.5847 469.645 44.487 468.758 44.487H467.909V43.4683H468.771C470.331 43.4683 471.111 43.0381 471.111 42.1777C471.111 41.8435 470.975 41.5857 470.703 41.4044C470.431 41.2231 470.03 41.1324 469.5 41.1324C469.13 41.1324 468.774 41.1751 468.431 41.2604C468.088 41.3422 467.682 41.5039 467.214 41.7457L466.446 40.8711C467.341 40.3449 468.382 40.0818 469.567 40.0818C470.551 40.0818 471.32 40.2507 471.872 40.5884C472.425 40.9262 472.701 41.392 472.701 41.9857Z" fill="black"/>
<path d="M531.72 1.9225H484.343C483.408 1.9225 482.65 2.68076 482.65 3.61612V50.9924C482.65 51.9278 483.408 52.6861 484.343 52.6861H531.72C532.655 52.6861 533.413 51.9278 533.413 50.9924V3.61612C533.413 2.68076 532.655 1.9225 531.72 1.9225Z" fill="#EEDDBB" stroke="#111111" stroke-width="0.268256" stroke-linecap="round" stroke-linejoin="round"/>
<path d="M498.17 11.398H507.013C511.115 11.398 514.076 11.9957 515.896 13.191C517.73 14.3864 518.647 16.2745 518.647 18.8554C518.647 20.5941 518.199 22.0407 517.302 23.1953C516.406 24.3499 515.115 25.0766 513.431 25.3755V25.5792C515.523 25.9732 517.058 26.7542 518.036 27.9224C519.027 29.077 519.523 30.6459 519.523 32.6291C519.523 35.3051 518.586 37.4037 516.711 38.9251C514.851 40.4329 512.256 41.1868 508.928 41.1868H498.17V11.398ZM503.04 23.7047H507.726C509.763 23.7047 511.251 23.3855 512.188 22.7471C513.125 22.0951 513.594 20.9948 513.594 19.4463C513.594 18.0471 513.085 17.0352 512.066 16.4103C511.061 15.7855 509.458 15.4731 507.257 15.4731H503.04V23.7047ZM503.04 27.6575V37.0913H508.215C510.252 37.0913 511.787 36.7042 512.82 35.9299C513.866 35.1421 514.389 33.906 514.389 32.2216C514.389 30.6731 513.859 29.5253 512.799 28.7782C511.74 28.0311 510.13 27.6575 507.97 27.6575H503.04Z" fill="black"/>
<path d="M527.247 41.9857C527.247 42.4799 527.066 42.8923 526.705 43.223C526.344 43.5501 525.836 43.7705 525.182 43.8843V43.927C525.966 44.0052 526.554 44.2007 526.946 44.5136C527.338 44.8229 527.534 45.2354 527.534 45.7509C527.534 46.5011 527.202 47.0806 526.538 47.4895C525.874 47.8948 524.93 48.0975 523.705 48.0975C522.622 48.0975 521.709 47.957 520.964 47.6762V46.5615C521.379 46.7251 521.818 46.8513 522.281 46.9402C522.744 47.0291 523.19 47.0735 523.618 47.0735C524.375 47.0735 524.941 46.9615 525.315 46.7375C525.689 46.5135 525.877 46.1669 525.877 45.6976C525.877 45.2816 525.669 44.9758 525.255 44.7803C524.841 44.5847 524.19 44.487 523.304 44.487H522.455V43.4683H523.317C524.876 43.4683 525.656 43.0381 525.656 42.1777C525.656 41.8435 525.52 41.5857 525.248 41.4044C524.977 41.2231 524.576 41.1324 524.045 41.1324C523.676 41.1324 523.319 41.1751 522.976 41.2604C522.633 41.3422 522.228 41.5039 521.76 41.7457L520.991 40.8711C521.887 40.3449 522.927 40.0818 524.112 40.0818C525.097 40.0818 525.865 40.2507 526.418 40.5884C526.97 40.9262 527.247 41.392 527.247 41.9857Z" fill="black"/>
<path d="M586.249 1.9225H538.905C537.961 1.9225 537.195 2.68794 537.195 3.63216V50.9764C537.195 51.9206 537.961 52.6861 538.905 52.6861H586.249C587.193 52.6861 587.959 51.9206 587.959 50.9764V3.63216C587.959 2.68794 587.193 1.9225 586.249 1.9225Z" fill="#EEDDBB" stroke="#111111" stroke-width="0.268256" stroke-linecap="round" stroke-linejoin="round"/>
<path d="M571.196 41.1868L568.221 32.9144H556.831L553.917 41.1868H548.783L559.928 11.2757H565.226L576.371 41.1868H571.196ZM566.937 28.717L564.146 20.6076C563.942 20.0643 563.657 19.2085 563.29 18.0403C562.937 16.8722 562.692 16.0164 562.557 15.4731C562.19 17.1438 561.653 18.9708 560.947 20.954L558.257 28.717H566.937Z" fill="black"/>
<path d="M584.082 47.9908H582.512V42.9563C582.512 42.3555 582.53 41.8791 582.565 41.5271C582.463 41.6124 582.336 41.7066 582.184 41.8097C582.037 41.9128 581.538 42.2399 580.687 42.791L579.899 41.9964L582.773 40.1938H584.082V47.9908Z" fill="black"/>
<path d="M640.794 1.9225H593.451C592.507 1.9225 591.741 2.68834 591.741 3.63306V50.9755C591.741 51.9202 592.507 52.6861 593.451 52.6861H640.794C641.738 52.6861 642.504 51.9202 642.504 50.9755V3.63306C642.504 2.68834 641.738 1.9225 640.794 1.9225Z" fill="#EEDDBB" stroke="#111111" stroke-width="0.268256" stroke-linecap="round" stroke-linejoin="round"/>
<path d="M608.381 41.1868V11.398H613.251V37.0098H625.863V41.1868H608.381Z" fill="black"/>
<path d="M632.905 47.9908H631.335V42.9563C631.335 42.3555 631.352 41.879 631.388 41.5271C631.286 41.6124 631.159 41.7066 631.007 41.8097C630.86 41.9128 630.361 42.2399 629.51 42.791L628.721 41.9964L631.595 40.1938H632.905V47.9908Z" fill="black"/>
<path d="M695.333 1.9225H648.003C647.055 1.9225 646.286 2.69101 646.286 3.63902V50.9695C646.286 51.9175 647.055 52.6861 648.003 52.6861H695.333C696.281 52.6861 697.05 51.9175 697.05 50.9695V3.63902C697.05 2.69101 696.281 1.9225 695.333 1.9225Z" fill="#EEDDBB" stroke="#111111" stroke-width="0.268256" stroke-linecap="round" stroke-linejoin="round"/>
<path d="M669.233 41.1868V11.398H674.103V41.1868H669.233Z" fill="black"/>
<path d="M683.158 47.9908H681.588V42.9563C681.588 42.3555 681.606 41.879 681.641 41.5271C681.539 41.6124 681.412 41.7066 681.26 41.8097C681.113 41.9128 680.614 42.2399 679.763 42.791L678.975 41.9964L681.849 40.1938H683.158V47.9908Z" fill="black"/>
<path d="M749.895 1.9225H702.532C701.593 1.9225 700.832 2.68386 700.832 3.62305V50.9855C700.832 51.9247 701.593 52.6861 702.532 52.6861H749.895C750.834 52.6861 751.595 51.9247 751.595 50.9855V3.62305C751.595 2.68386 750.834 1.9225 749.895 1.9225Z" fill="#EEDDBB" stroke="#111111" stroke-width="0.268256" stroke-linecap="round" stroke-linejoin="round"/>
<path d="M734.366 41.1868H713.053V37.8045L728.07 15.5749H713.461V11.398H733.958V14.821L718.881 37.0098H734.366V41.1868Z" fill="black"/>
<path d="M740.565 47.9908H738.995V42.9563C738.995 42.3555 739.013 41.879 739.048 41.5271C738.946 41.6124 738.819 41.7066 738.667 41.8097C738.52 41.9128 738.021 42.2399 737.17 42.791L736.382 41.9964L739.255 40.1938H740.565V47.9908Z" fill="black"/>
<path d="M749.001 44.0923C749.001 45.4469 748.727 46.4531 748.179 47.1109C747.636 47.7686 746.803 48.0975 745.68 48.0975C744.593 48.0975 743.769 47.7579 743.207 47.0789C742.646 46.3998 742.365 45.4042 742.365 44.0923C742.365 42.7164 742.637 41.7031 743.18 41.0524C743.728 40.3982 744.562 40.0711 745.68 40.0711C746.771 40.0711 747.598 40.4124 748.159 41.0951C748.721 41.7777 749.001 42.7768 749.001 44.0923ZM743.956 44.0923C743.956 45.1554 744.092 45.9145 744.363 46.3695C744.64 46.8246 745.078 47.0522 745.68 47.0522C746.281 47.0522 746.72 46.8211 746.996 46.3589C747.277 45.8967 747.418 45.1411 747.418 44.0923C747.418 43.047 747.277 42.2915 746.996 41.8257C746.72 41.3564 746.281 41.1217 745.68 41.1217C745.078 41.1217 744.64 41.3511 744.363 41.8097C744.092 42.2684 743.956 43.0292 743.956 44.0923Z" fill="black"/>
<path d="M804.416 1.9225H757.102C756.149 1.9225 755.377 2.69459 755.377 3.64701V50.9616C755.377 51.914 756.149 52.6861 757.102 52.6861H804.416C805.369 52.6861 806.141 51.914 806.141 50.9616V3.64701C806.141 2.69459 805.369 1.9225 804.416 1.9225Z" fill="#EEDDBB" stroke="#111111" stroke-width="0.268256" stroke-linecap="round" stroke-linejoin="round"/>
<path d="M789.184 41.1868H772.334V11.398H789.184V15.5138H777.203V23.6232H788.43V27.6983H777.203V37.0506H789.184V41.1868Z" fill="black"/>
<path d="M797.614 47.9908H796.044V42.9563C796.044 42.3555 796.062 41.879 796.097 41.5271C795.995 41.6124 795.868 41.7066 795.716 41.8097C795.569 41.9128 795.07 42.2399 794.219 42.791L793.431 41.9964L796.305 40.1938H797.614V47.9908Z" fill="black"/>
</g>
<path d="M0.00164473 0.000483001V25.9998V51.9965H9.42529H18.8489L18.8635 35.9305C18.883 17.9447 18.8516 19.0046 19.3455 20.7769L19.5986 21.6914L27.2408 36.8423L34.888 51.996H45.5044H56.1256V25.9993V0H46.6678H37.21V15.3321C37.21 28.0383 37.1936 30.6615 37.1175 30.6615C37.0515 30.6615 36.9336 30.3756 36.6989 29.6448L36.3699 28.6305L28.8409 14.3154L21.3153 0.000254935H10.6553L0.00164473 0.000483001ZM63.606 0.000483001V25.9998V51.9991L80.8423 51.9887C96.362 51.9778 98.1738 51.9683 99.0473 51.9127C102.875 51.6688 105.482 51.2931 108.126 50.5999C114.064 49.0424 117.842 46.1468 119.423 41.9396C120.677 38.6055 120.644 34.3038 119.341 31.4817C118.152 28.9082 115.95 27.1137 112.506 25.9082C111.752 25.6442 110.166 25.2334 109.201 25.0514C108.443 24.9083 106.862 24.6808 106.324 24.6374C106.093 24.6187 106.013 24.5937 106.013 24.5457C106.013 24.4978 106.21 24.4416 106.772 24.3255C113.035 23.0334 116.446 20.5253 117.51 16.433C117.991 14.5866 118.101 11.6185 117.754 9.814C117.056 6.2045 114.733 3.69204 110.648 2.12878C107.401 0.88523 103.035 0.205698 97.2102 0.0404097C96.363 0.0163812 89.8419 0.00387733 79.7304 0.00372438L63.606 0.000483001ZM152.816 0.000483001C142.703 0.000482867 138.368 0.0147847 138.368 0.0424087C138.368 0.0641149 134.442 11.7461 129.641 26.0055C124.839 40.265 120.908 51.9472 120.908 51.9659C120.908 51.9853 125.464 52 131.787 52C137.77 52 142.666 51.9898 142.666 51.979C142.666 51.9683 143.166 49.4289 143.776 46.3374C144.386 43.2459 144.881 40.6877 144.881 40.6512C144.881 40.5881 145.25 40.5856 152.508 40.5856C158.545 40.5856 160.136 40.5958 160.16 40.6328C160.177 40.6585 160.637 43.2215 161.183 46.3295L162.176 51.9789L173.585 51.9894C179.862 51.9946 185 51.9881 185 51.9763C185 51.9484 167.344 0.197621 167.296 0.087608L167.262 0.00113633L152.816 0.000483001ZM152.85 7.87206C152.958 7.87206 152.977 7.93426 153.02 8.45902C153.051 8.82709 153.995 13.4076 155.551 20.7223C156.917 27.1434 158.017 32.4094 158 32.4248C157.951 32.468 147.169 32.4602 147.169 32.4169C147.169 32.3969 148.383 27.139 149.866 20.7327C151.349 14.3265 152.583 8.92376 152.606 8.72882C152.701 7.93761 152.72 7.87206 152.85 7.87206ZM86.0552 8.8416H89.5843C91.5284 8.8416 93.4223 8.85953 93.8093 8.8809C95.2454 8.96023 96.3494 9.20783 97.1973 9.64081C98.0786 10.0909 98.6192 10.6227 99.0129 11.4305C99.4661 12.3603 99.599 13.2448 99.5484 14.9707C99.5089 16.3163 99.452 16.6792 99.1833 17.4024C98.4914 19.2644 96.7967 20.2306 93.7462 20.497C93.2179 20.5431 92.4051 20.5545 89.5747 20.5546H86.0554V14.6982L86.0552 8.8416ZM86.0552 29.0156L90.0904 29.0313C93.8417 29.0454 94.173 29.0524 94.7536 29.123C97.9808 29.5158 99.6853 30.84 100.288 33.4231C100.613 34.8135 100.611 37.7906 100.288 39.3163C99.7367 41.919 98.0607 42.9222 93.9407 43.1184C93.5095 43.139 91.5615 43.1578 89.6084 43.1578H86.055V36.0854L86.0552 29.0156Z" fill="#006AB5"/>
<defs>
<clipPath id="clip0_2_96">
<rect width="600" height="56" fill="white" transform="translate(208)"/>
</clipPath>
</defs>
</svg>
